# xmcd
#
# Track frame offsets:
#	150
#	13475
#	32872
#	53380
#	72264
#	89348
#	110367
#	133509
#	146299
#	170366
#	187817
#	206093
#
# Disc length: 3056 seconds
# Revision: 0
# Processed by: cddbd v1.5.2PL0 Copyright (c) Steve Scherf et al.
# Submitted via: dBpowerAMP V12.0
#
DISCID=a00bee0c
DTITLE=Blind Lemon Pledge - Backwoods Glance
DYEAR=2016
DGENRE=Blues
TTITLE0=Polly Come Out
TTITLE1=The Hills of West Virginia
TTITLE2=Sister of the Coal Dust
TTITLE3=Moon Over Memphis
TTITLE4=Lynchburg Town
TTITLE5=Fayetteville
TTITLE6=Silver Wings
TTITLE7=Sweet Celine
TTITLE8=Carolina Kiss
TTITLE9=Sunset
TTITLE10=Ma Belle Cherie
TTITLE11=Give My Poor Heart Ease
EXTD=
EXTT0=
EXTT1=
EXTT2=
EXTT3=
EXTT4=
EXTT5=
EXTT6=
EXTT7=
EXTT8=
EXTT9=
EXTT10=
EXTT11=
PLAYORDER=
